#N canvas 604 213 287 221 10;
#X msg 3 87 set \$1;
#X obj 3 37 s \$2-nbx-r;
#X obj 3 66 r \$2-nbx-s;
#X msg 90 51 set \$1;
#X obj 100 72 s \$2-nbx-r;
#X obj 53 87 s \$2;
#X obj 3 16 r \$2-sldr-s;
#X obj 90 93 s \$2-sldr-r;
#X obj 3 108 s \$2-sldr-r;
#X obj 90 29 param.get \$1;
#X connect 0 0 8 0;
#X connect 2 0 0 0;
#X connect 2 0 5 0;
#X connect 3 0 4 0;
#X connect 3 0 7 0;
#X connect 6 0 1 0;
#X connect 9 0 3 0;
