#N canvas 623 284 769 632 12;
#X obj 5 417 dac~;
#N canvas 991 400 588 545 solo 0;
#N canvas 830 369 885 531 hanning 0;
#N canvas 0 0 450 300 (subpatch) 0;
#X array hanning 1024 float 0;
#X coords 0 1 1023 0 200 120 1;
#X restore 190 29 graph;
#X obj 8 39 loadbang;
#X obj 8 176 osc~;
#X obj 8 126 samplerate~;
#X obj 8 223 tabwrite~ hanning;
#X msg 93 126 0;
#X obj 8 151 / 2048;
#X obj 72 63 t b f;
#X obj 72 38 * 2;
#X obj 72 14 r \$0-binsize;
#X obj 7 199 expr~ ($v1*-0.5)+0.5;
#X obj 8 64 t b;
#X obj 8 99 r \$0-sampchange-bang;
#X connect 1 0 11 0;
#X connect 2 0 10 0;
#X connect 3 0 6 0;
#X connect 5 0 2 1;
#X connect 6 0 2 0;
#X connect 7 0 11 0;
#X connect 7 1 6 1;
#X connect 8 0 7 0;
#X connect 9 0 8 0;
#X connect 10 0 4 0;
#X connect 11 0 5 0;
#X connect 11 0 3 0;
#X connect 11 0 4 0;
#X connect 12 0 3 0;
#X restore 2 1 pd hanning;
#N canvas 258 544 456 417 paramset 0;
#X obj 5 29 abs/param.set 2 \$0-feed-sldr-s;
#X obj 5 52 abs/param.set 3 \$0-osc-hro-s;
#X obj 5 75 abs/param.set 4 \$0-speed-sldr-s;
#X obj 5 98 abs/param.set 5 \$0-inv-tgl-s;
#X obj 5 193 abs/param.set 9 \$0-mix-sldr-s;
#X obj 5 170 abs/param.set 8 \$0-bins-hro-s;
#X obj 5 122 abs/param.set 6 \$0-offset-sldr-s;
#X obj 5 146 abs/param.set 7 \$0-off-inv-tgl-s;
#X obj 5 217 abs/param.change;
#X obj 5 7 abs/param.set 1 \$0-time-sldr-s;
#X obj 452 143;
#X obj 225 7 abs/gui.link 1 \$0-time;
#X restore 2 24 pd paramset;
#N canvas 636 511 870 311 binsize 0;
#X obj 3 30 expr pow(2 \, $i1+7);
#X obj 138 29 expr 8/pow(0.5 \, $i1);
#X obj 3 53 s \$0-binsize;
#X obj 138 52 s \$0-divadj;
#X obj 3 5 abs/param.get 8;
#X connect 0 0 2 0;
#X connect 1 0 3 0;
#X connect 4 0 0 0;
#X connect 4 0 1 0;
#X restore 2 94 pd binsize;
#N canvas 330 458 1271 486 label 0;
#X msg 5 61 gui redraw;
#X obj 5 85 s camomile;
#X obj 139 67 s \$0-bins-hro-r;
#X obj 5 39 t b;
#X obj 139 19 r \$0-binsize;
#X msg 139 43 label bins:\$1;
#X msg 330 81 label osc:\$1;
#X obj 330 106 s \$0-osc-hro-r;
#X obj 331 10 route 0 1 2 3 4 5;
#X msg 331 45 symbol ramp;
#X msg 420 44 symbol square;
#X msg 528 44 symbol triangle;
#X msg 653 45 symbol sine;
#X msg 746 44 symbol noise;
#X obj 289 186 + 0.4999;
#X obj 288 208 int;
#X obj 286 257 s \$0-offset-sldr-r;
#X obj 147 187 + 0.4999;
#X obj 146 209 int;
#X msg 145 233 label feedback:\$1%;
#X obj 144 258 s \$0-feed-sldr-r;
#X obj 434 184 + 0.4999;
#X obj 433 206 int;
#X msg 432 230 label mix:\$1%;
#X obj 431 255 s \$0-mix-sldr-r;
#X msg 287 232 label offset:\$1%;
#X obj 565 280 s \$0-speed-sldr-r;
#X obj 566 185 + 0.4999;
#X obj 565 207 int;
#X obj 688 161 sel 4;
#X msg 679 191 symbol seed;
#X msg 768 192 symbol freq;
#X obj 565 231 pack 0 s s;
#X msg 565 255 label \$2:\$1\$3;
#X msg 676 214 symbol;
#X msg 763 214 symbol hz;
#X obj 802 134 t b;
#X obj 147 162 abs/param.get 2;
#X obj 289 161 abs/param.get 6;
#X obj 434 159 abs/param.get 9;
#X obj 566 162 abs/param.get 4;
#X obj 688 134 abs/param.get 3;
#X connect 0 0 1 0;
#X connect 3 0 0 0;
#X connect 4 0 5 0;
#X connect 4 0 3 0;
#X connect 5 0 2 0;
#X connect 6 0 7 0;
#X connect 8 0 9 0;
#X connect 8 1 10 0;
#X connect 8 2 11 0;
#X connect 8 3 12 0;
#X connect 8 4 13 0;
#X connect 9 0 6 0;
#X connect 10 0 6 0;
#X connect 11 0 6 0;
#X connect 12 0 6 0;
#X connect 13 0 6 0;
#X connect 14 0 15 0;
#X connect 15 0 25 0;
#X connect 17 0 18 0;
#X connect 18 0 19 0;
#X connect 19 0 20 0;
#X connect 21 0 22 0;
#X connect 22 0 23 0;
#X connect 23 0 24 0;
#X connect 25 0 16 0;
#X connect 27 0 28 0;
#X connect 28 0 32 0;
#X connect 29 0 30 0;
#X connect 29 0 34 0;
#X connect 29 1 31 0;
#X connect 29 1 35 0;
#X connect 30 0 32 1;
#X connect 31 0 32 1;
#X connect 32 0 33 0;
#X connect 33 0 26 0;
#X connect 34 0 32 2;
#X connect 35 0 32 2;
#X connect 36 0 32 0;
#X connect 37 0 17 0;
#X connect 37 0 3 0;
#X connect 38 0 14 0;
#X connect 38 0 3 0;
#X connect 39 0 21 0;
#X connect 39 0 3 0;
#X connect 40 0 27 0;
#X connect 40 0 3 0;
#X connect 41 0 29 0;
#X connect 41 0 8 0;
#X connect 41 0 3 0;
#X connect 41 0 36 0;
#X restore 2 48 pd label;
#N canvas 219 531 696 323 arraysize 0;
#X msg 134 58 \; hanning resize \$1;
#X obj 134 33 * 2;
#X obj 13 14 r \$0-binsize;
#X msg 13 58 \; delay resize \$1;
#X connect 1 0 0 0;
#X connect 2 0 1 0;
#X connect 2 0 3 0;
#X restore 2 117 pd arraysize;
#N canvas 1248 605 280 147 latency 0;
#X msg 1 75 audio latency \$1;
#X obj 1 99 send camomile;
#X obj 4 6 r \$0-binsize;
#X obj 2 51 t b f;
#X obj 2 28 * 2;
#X connect 0 0 1 0;
#X connect 2 0 4 0;
#X connect 3 0 1 0;
#X connect 3 1 0 0;
#X connect 4 0 3 0;
#X restore 2 140 pd latency;
#N canvas 673 88 1062 862 paramget 0;
#X obj 108 25 loadbang;
#X obj 142 48 f 0;
#X msg 142 73 set \$1;
#X obj 139 265 f 0;
#X msg 139 289 set \$1;
#X obj 139 192 f 0;
#X msg 139 216 set \$1;
#X obj 139 240 s \$0-osc-hro-r;
#X obj 138 121 f 0;
#X msg 138 145 set \$1;
#X obj 420 192 f 0;
#X msg 420 216 set \$1;
#X obj 420 120 f 0;
#X msg 420 144 set \$1;
#X obj 420 168 s \$0-bins-hro-r;
#X obj 139 313 s \$0-speed-sldr-r;
#X obj 137 336 f 0;
#X msg 137 360 set \$1;
#X obj 137 384 s \$0-inv-tgl-r;
#X obj 138 169 s \$0-feed-sldr-r;
#X obj 137 409 f 0;
#X msg 137 434 set \$1;
#X obj 137 458 s \$0-offset-sldr-r;
#X obj 420 47 f 0;
#X msg 420 72 set \$1;
#X obj 420 96 s \$0-off-inv-tgl-r;
#X obj 420 240 s \$0-mix-sldr-r;
#X obj 29 48 abs/param.get 1;
#X obj 26 121 abs/param.get 2;
#X obj 27 192 abs/param.get 3;
#X obj 27 265 abs/param.get 4;
#X obj 25 336 abs/param.get 5;
#X obj 307 192 abs/param.get 9;
#X obj 308 120 abs/param.get 8;
#X obj 18 409 abs/param.get 6;
#X obj 298 47 abs/param.get 7;
#X obj 142 97 s \$0-time-sldr-r;
#X connect 0 0 1 0;
#X connect 0 0 3 0;
#X connect 0 0 5 0;
#X connect 0 0 8 0;
#X connect 0 0 10 0;
#X connect 0 0 12 0;
#X connect 0 0 16 0;
#X connect 0 0 20 0;
#X connect 0 0 23 0;
#X connect 1 0 2 0;
#X connect 2 0 36 0;
#X connect 3 0 4 0;
#X connect 4 0 15 0;
#X connect 5 0 6 0;
#X connect 6 0 7 0;
#X connect 8 0 9 0;
#X connect 9 0 19 0;
#X connect 10 0 11 0;
#X connect 11 0 26 0;
#X connect 12 0 13 0;
#X connect 13 0 14 0;
#X connect 16 0 17 0;
#X connect 17 0 18 0;
#X connect 20 0 21 0;
#X connect 21 0 22 0;
#X connect 23 0 24 0;
#X connect 24 0 25 0;
#X connect 27 0 1 0;
#X connect 28 0 8 0;
#X connect 29 0 5 0;
#X connect 30 0 3 0;
#X connect 31 0 16 0;
#X connect 32 0 10 0;
#X connect 33 0 12 0;
#X connect 34 0 20 0;
#X connect 35 0 23 0;
#X restore 2 163 pd paramget;
#N canvas 811 572 450 285 samplerate 0;
#X obj 5 19 receive pd;
#X obj 5 41 route dsp;
#X obj 5 67 sel 1;
#X obj 5 146 samplerate~;
#X obj 26 120 s \$0-sampchange-bang;
#X obj 55 96 loadbang;
#X obj 26 96 t b;
#X connect 0 0 1 0;
#X connect 1 0 2 0;
#X connect 2 0 3 0;
#X connect 2 0 6 0;
#X connect 5 0 4 0;
#X connect 6 0 4 0;
#X restore 2 186 pd samplerate;
#N canvas 547 357 1036 520 printing 0;
#X obj 288 113 sig~;
#N canvas 531 550 483 212 sine 0;
#X obj 12 12 inlet~;
#X obj 13 133 outlet~;
#X obj 12 85 osc~;
#X obj 348 73 switch~;
#X obj 36 38 r \$0-delayWrite;
#X msg 36 62 0;
#X obj 348 47 == 3;
#X obj 348 22 abs/param.get 3;
#X obj 12 109 expr~ .5*(min($v1 \, 1+$v1)+1);
#X connect 0 0 2 0;
#X connect 2 0 8 0;
#X connect 4 0 5 0;
#X connect 5 0 2 1;
#X connect 6 0 3 0;
#X connect 7 0 6 0;
#X connect 8 0 1 0;
#X restore 513 162 pd sine;
#X obj 289 238 tabwrite~ delay;
#X obj 324 88 r \$0-divadj;
#X obj 324 113 / 128;
#X obj 288 135 /~;
#N canvas 197 549 529 231 ramp 0;
#X obj 12 59 phasor~;
#X obj 12 12 inlet~;
#X obj 12 110 outlet~;
#X obj 61 12 r \$0-delayWrite;
#X obj 211 60 switch~;
#X obj 211 34 == 0;
#X msg 61 36 0;
#X obj 211 10 abs/param.get 3;
#X obj 12 85 expr~ -$v1+1;
#X connect 0 0 8 0;
#X connect 1 0 0 0;
#X connect 3 0 6 0;
#X connect 5 0 4 0;
#X connect 6 0 0 1;
#X connect 7 0 5 0;
#X connect 8 0 2 0;
#X restore 287 165 pd ramp;
#N canvas 472 347 529 225 triangle 0;
#X obj 16 62 phasor~;
#X obj 12 12 inlet~;
#X obj 16 113 outlet~;
#X obj 62 13 r \$0-delayWrite;
#X obj 333 102 switch~;
#X msg 62 37 0;
#X obj 333 76 == 2;
#X obj 333 52 abs/param.get 3;
#X obj 16 88 expr~ 2*abs($v1-0.5);
#X connect 0 0 8 0;
#X connect 1 0 0 0;
#X connect 3 0 5 0;
#X connect 5 0 0 1;
#X connect 6 0 4 0;
#X connect 7 0 6 0;
#X connect 8 0 2 0;
#X restore 427 163 pd triangle;
#N canvas 600 385 529 318 square 0;
#X obj 12 59 phasor~;
#X obj 12 12 inlet~;
#X obj 11 112 outlet~;
#X obj 63 11 r \$0-delayWrite;
#X obj 314 62 switch~;
#X msg 63 35 0;
#X obj 314 36 == 1;
#X obj 314 12 abs/param.get 3;
#X obj 12 84 expr~ $v1>0.5;
#X connect 0 0 8 0;
#X connect 1 0 0 0;
#X connect 3 0 5 0;
#X connect 5 0 0 1;
#X connect 6 0 4 0;
#X connect 7 0 6 0;
#X connect 8 0 2 0;
#X restore 349 165 pd square;
#N canvas 961 479 808 325 noise 0;
#X obj 13 136 noise~;
#X obj 14 188 outlet~;
#X msg 13 109 seed \$1;
#X obj 13 14 inlet;
#X obj 329 94 switch~;
#X obj 329 68 == 4;
#X obj 65 87 +;
#X obj 329 44 abs/param.get 3;
#X obj 65 64 r \$0-const-bang;
#X obj 14 164 expr~ .5*(min($v1 \, 1+$v1)+1);
#X connect 0 0 9 0;
#X connect 2 0 0 0;
#X connect 3 0 2 0;
#X connect 3 0 6 1;
#X connect 5 0 4 0;
#X connect 6 0 2 0;
#X connect 7 0 5 0;
#X connect 8 0 6 0;
#X connect 9 0 1 0;
#X restore 570 163 pd noise;
#X obj 182 267 s \$0-delayWrite;
#X msg 182 196 tempo \$1 samp;
#X obj 182 174 r \$0-binsize;
#X obj 182 219 metro;
#X obj 119 174 loadbang;
#X obj 288 40 abs/param.get 4;
#X obj 527 214 abs/param.get 5;
#X obj 425 17 r \$0-sampchange-bang;
#X obj 425 41 samplerate~;
#X obj 288 65 expr $f1*($f2/44100);
#X obj 527 238 expr ($i1*-2)+1;
#X obj 288 214 expr~ ((4000*$v1)*$i2)+($i3*4000);
#X connect 0 0 5 0;
#X connect 1 0 21 0;
#X connect 3 0 4 0;
#X connect 4 0 5 1;
#X connect 5 0 6 0;
#X connect 5 0 1 0;
#X connect 5 0 7 0;
#X connect 5 0 8 0;
#X connect 6 0 21 0;
#X connect 7 0 21 0;
#X connect 8 0 21 0;
#X connect 9 0 21 0;
#X connect 11 0 13 0;
#X connect 12 0 11 0;
#X connect 13 0 10 0;
#X connect 13 0 2 0;
#X connect 14 0 13 0;
#X connect 15 0 9 0;
#X connect 15 0 19 0;
#X connect 16 0 20 0;
#X connect 16 0 21 2;
#X connect 17 0 18 0;
#X connect 17 0 19 0;
#X connect 18 0 19 1;
#X connect 19 0 0 0;
#X connect 20 0 21 1;
#X connect 21 0 2 0;
#X restore 2 71 pd printing;
#N canvas 372 481 567 435 panic 0;
#X msg 13 51 0;
#X obj 13 77 s \$0-feed-sldr-r;
#X obj 13 27 r \$0-PANIC-s;
#X connect 0 0 1 0;
#X connect 2 0 0 0;
#X restore 2 209 pd panic;
#N canvas 200 462 531 286 presets 0;
#X obj 8 13 text define -k \$0-presets;
#A set 100 0 0 21.5 0 0 0 2 100 \;;
#X obj 8 37 abs/program.manager \$0-presets;
#X restore 3 234 pd presets;
#N canvas 343 492 451 300 const-bang 0;
#X obj 6 7 bang~;
#X obj 6 31 s \$0-const-bang;
#X connect 0 0 1 0;
#X restore 3 258 pd const-bang;
#X restore 5 441 pd solo;
#X obj 0 0 cnv 15 420 300 empty \$0-canv empty 20 12 0 14 -241344 -1
0;
#X obj 5 317 adc~ 1 2 3 4;
#X obj 310 141 hradio 17 1 0 5 \$0-bins-hro-s \$0-bins-hro-r bins:0
0 -8 0 11 -203904 -1 -1 0;
#X obj 259 228 bng 17 250 50 0 \$0-PANIC-s \$0-PANIC-r PANIC -6 24
0 10 -204800 -1 -1;
#X obj 172 185 hsl 80 18 0 100 0 0 \$0-offset-sldr-s \$0-offset-sldr-r
offset -5 -8 0 12 -204800 -1 -1 0 1;
#X obj 259 185 tgl 17 0 \$0-off-inv-tgl-s \$0-off-inv-tgl-r invert
-10 24 0 10 -204800 -1 -1 0 1;
#X obj 314 187 hsl 80 18 0 100 0 0 \$0-mix-sldr-s \$0-mix-sldr-r mix
-5 -8 0 12 -203904 -1 -1 0 1;
#X obj 172 228 hsl 80 18 0 100 0 0 \$0-feed-sldr-s \$0-feed-sldr-r
feedback -5 -8 0 12 -204800 -1 -1 0 1;
#X obj 171 139 hsl 103 18 40 4000 1 0 \$0-time-sldr-s \$0-time-sldr-r
time:_______ms -4 -8 0 12 -204800 -1 -1 0 1;
#X obj 22 140 hradio 18 1 0 5 \$0-osc-hro-s \$0-osc-hro-r osc:ramp
0 -8 0 12 -204786 -1 -1 0;
#X obj 26 185 hsl 80 18 21.5 1024 1 0 \$0-speed-sldr-s \$0-speed-sldr-r
freq -5 -8 0 12 -204786 -1 -1 0 1;
#X obj 113 185 tgl 17 0 \$0-inv-tgl-s \$0-inv-tgl-r invert -10 24 0
10 -204786 -1 -1 0 1;
#X obj 144 3 cnv 15 1 1 empty \$0-canv spectralsand 20 12 0 14 -241344
-1 0;
#X obj 293 278 cnv 15 1 1 empty \$0-canv (un)familiar._<0> 20 12 0
10 -241344 -1 0;
#X obj 18 30 cnv 15 380 75 \$0-arraybg-s \$0-arraybg-r empty 20 12
0 14 -203904 -1 0;
#N canvas 31 240 1299 630 (subpatch) 0;
#X array delay 512 float 4;
#X coords 0 4000 511 1 380 75 2 0 0;
#X restore 18 30 graph;
#N canvas 397 495 514 436 mix 0;
#X obj 5 9 inlet~;
#X obj 55 9 inlet~;
#X obj 5 58 outlet~;
#X obj 105 9 abs/param.get 9;
#X obj 112 82 inlet~;
#X obj 162 82 inlet~;
#X obj 112 131 outlet~;
#X obj 5 35 expr~ ($v1*(abs(($f2/100)-1)))+($v3*($f2/100));
#X obj 112 108 expr~ ($v1*(abs(($f2/100)-1)))+($v3*($f2/100));
#X connect 0 0 7 0;
#X connect 1 0 7 2;
#X connect 3 0 7 1;
#X connect 3 0 8 1;
#X connect 4 0 8 0;
#X connect 5 0 8 2;
#X connect 7 0 2 0;
#X connect 8 0 6 0;
#X restore 4 392 pd mix;
#N canvas 847 529 665 321 scmode 0;
#X obj 5 7 inlet~;
#X obj 56 7 inlet~;
#X obj 5 253 tabwrite~ delay;
#X obj 212 14 r \$0-binsize;
#X msg 212 62 set \$1 4;
#X obj 212 86 block~ 512 4;
#X obj 212 38 * 2;
#X obj 5 31 expr~ ($v1+$v2)/2;
#X obj 6 172 *~ 7;
#X obj 94 173 expr ($i1*-2)+1;
#X msg 272 198 tempo \$1 samp;
#X obj 272 172 r \$0-binsize;
#X obj 272 221 metro;
#X obj 208 172 loadbang;
#X obj 272 245 spigot;
#X obj 49 121 abs/param.get 11;
#X obj 184 132 abs/param.get 5;
#X obj 349 223 abs/param.get 10;
#X obj 6 227 clip~ 1 4000;
#X obj 5 201 expr~ ($v1*$i2)+($i3*4000);
#X obj 5 58 rfft~;
#X obj 5 91 *~;
#X obj 5 121 sqrt~;
#X obj 5 147 biquad~ 0 0 0 0 1;
#X obj 36 92 *~;
#X connect 0 0 7 0;
#X connect 1 0 7 1;
#X connect 3 0 6 0;
#X connect 4 0 5 0;
#X connect 6 0 4 0;
#X connect 7 0 20 0;
#X connect 8 0 19 0;
#X connect 9 0 19 1;
#X connect 10 0 12 0;
#X connect 11 0 10 0;
#X connect 12 0 14 0;
#X connect 13 0 12 0;
#X connect 14 0 2 0;
#X connect 15 0 8 1;
#X connect 16 0 9 0;
#X connect 16 0 19 2;
#X connect 17 0 14 1;
#X connect 18 0 2 0;
#X connect 19 0 18 0;
#X connect 20 0 21 0;
#X connect 20 0 21 1;
#X connect 20 1 24 0;
#X connect 20 1 24 1;
#X connect 21 0 22 0;
#X connect 22 0 23 0;
#X connect 23 0 8 0;
#X connect 24 0 22 0;
#X restore 88 343 pd scmode;
#N canvas 771 382 762 445 spectral 0;
#X obj 13 16 inlet~;
#X obj 143 15 inlet~;
#X obj 13 84 outlet~;
#X obj 143 83 outlet~;
#X obj 13 128 r \$0-binsize;
#X msg 13 176 set \$1 4;
#X obj 13 200 block~ 512 4;
#X obj 13 152 * 2;
#X obj 13 62 *~ -1;
#X obj 143 62 *~ -1;
#N canvas 104 414 736 561 fft-analysis-l 0;
#X obj 7 8 inlet~;
#X obj 7 32 *~;
#X obj 56 8 tabreceive~ hanning;
#X obj 7 56 rfft~;
#X obj 7 104 tabreceive~ delay;
#N canvas 302 403 450 300 clear-buffer 0;
#X msg 11 56 clear;
#X obj 11 8 r \$0-binsize;
#X obj 11 32 change;
#X msg 60 32 set \$1;
#X obj 11 80 outlet;
#X obj 116 32 r \$0-PANIC-s;
#X connect 0 0 4 0;
#X connect 1 0 2 0;
#X connect 1 0 3 0;
#X connect 2 0 0 0;
#X connect 3 0 2 0;
#X connect 5 0 0 0;
#X restore 161 56 pd clear-buffer;
#X obj 5 276 delread4~ real-l;
#X obj 124 276 delread4~ imag-l;
#X obj 5 300 rifft~;
#X obj 5 324 /~ 512;
#X obj 5 348 *~;
#N canvas 800 488 470 310 feedback 0;
#X obj 40 130 *~;
#X obj 58 33 / 100;
#X obj 58 81 line 0 5;
#X msg 58 56 \$1 125;
#X obj 97 131 *~;
#X obj 58 10 abs/param.get 2;
#X obj 39 107 inlet~;
#X obj 96 108 inlet~;
#X obj 40 154 outlet~;
#X obj 97 154 outlet~;
#X connect 0 0 8 0;
#X connect 1 0 3 0;
#X connect 2 0 0 1;
#X connect 2 0 4 1;
#X connect 3 0 2 0;
#X connect 4 0 9 0;
#X connect 5 0 1 0;
#X connect 6 0 0 0;
#X connect 7 0 4 0;
#X restore 54 300 pd feedback;
#N canvas 361 528 450 302 fft-data 0;
#X obj 12 18 r \$0-binsize;
#X obj 12 42 * 2;
#X obj 105 40 samplerate~;
#X obj 105 62 / 1000;
#X obj 12 66 outlet;
#X obj 105 86 outlet;
#X obj 105 18 r \$0-sampchange-bang;
#X obj 254 18 r \$0-divadj;
#X obj 254 42 / 64;
#X obj 254 66 outlet;
#X connect 0 0 1 0;
#X connect 1 0 4 0;
#X connect 2 0 3 0;
#X connect 3 0 5 0;
#X connect 6 0 2 0;
#X connect 7 0 8 0;
#X connect 8 0 9 0;
#X restore 71 221 pd fft-data;
#X obj 5 372 outlet~;
#X obj 6 211 -~;
#X obj 23 188 wrap~;
#X obj 6 167 *~;
#N canvas 268 447 450 300 time 0;
#X obj 9 135 line 0 5;
#X msg 9 113 \$1 125;
#X obj 9 159 outlet;
#X obj 11 38 abs/param.get 1;
#X obj 11 62 f;
#X obj 125 38 t b f;
#X obj 244 62 t b f;
#X obj 244 39 expr 2*$f1-1;
#X obj 125 14 abs/param.get 6;
#X obj 244 14 abs/param.get 7;
#X obj 9 89 expr ($f1+($f1*($f2/($f3*100))))/185632;
#X connect 0 0 2 0;
#X connect 1 0 0 0;
#X connect 3 0 4 0;
#X connect 4 0 10 0;
#X connect 5 0 4 0;
#X connect 5 1 10 1;
#X connect 6 0 4 0;
#X connect 6 1 10 2;
#X connect 7 0 6 0;
#X connect 8 0 5 0;
#X connect 9 0 7 0;
#X connect 10 0 1 0;
#X restore 36 155 pd time;
#X obj 7 80 delwrite~ real-l 16000;
#X obj 169 80 delwrite~ imag-l 16000;
#X obj 6 245 expr~ (($v1*$f2)/$f3)/$f4;
#X obj 6 131 expr~ $v1*($f2/44.1);
#X connect 0 0 1 0;
#X connect 1 0 3 0;
#X connect 2 0 1 1;
#X connect 2 0 10 1;
#X connect 3 0 18 0;
#X connect 3 1 19 0;
#X connect 4 0 21 0;
#X connect 5 0 18 0;
#X connect 5 0 19 0;
#X connect 6 0 8 0;
#X connect 6 0 11 0;
#X connect 7 0 8 1;
#X connect 7 0 11 1;
#X connect 8 0 9 0;
#X connect 9 0 10 0;
#X connect 10 0 13 0;
#X connect 11 0 18 0;
#X connect 11 1 19 0;
#X connect 12 0 20 1;
#X connect 12 0 9 1;
#X connect 12 1 21 1;
#X connect 12 1 20 2;
#X connect 12 2 20 3;
#X connect 14 0 20 0;
#X connect 15 0 14 1;
#X connect 16 0 15 0;
#X connect 16 0 14 0;
#X connect 17 0 16 1;
#X connect 20 0 7 0;
#X connect 20 0 6 0;
#X connect 21 0 16 0;
#X restore 13 40 pd fft-analysis-l;
#N canvas 932 345 695 567 fft-analysis-r 0;
#X obj 7 8 inlet~;
#X obj 7 32 *~;
#X obj 56 8 tabreceive~ hanning;
#X obj 7 56 rfft~;
#X obj 7 104 tabreceive~ delay;
#N canvas 383 359 450 300 clear-buffer 0;
#X msg 11 56 clear;
#X obj 11 8 r \$0-binsize;
#X obj 11 32 change;
#X msg 60 32 set \$1;
#X obj 11 80 outlet;
#X obj 116 32 r \$0-PANIC-s;
#X connect 0 0 4 0;
#X connect 1 0 2 0;
#X connect 1 0 3 0;
#X connect 2 0 0 0;
#X connect 3 0 2 0;
#X connect 5 0 0 0;
#X restore 161 56 pd clear-buffer;
#X obj 5 300 rifft~;
#X obj 5 324 /~ 512;
#X obj 5 348 *~;
#N canvas 800 488 470 310 feedback 0;
#X obj 40 130 *~;
#X obj 58 33 / 100;
#X obj 58 81 line 0 5;
#X msg 58 56 \$1 125;
#X obj 97 131 *~;
#X obj 58 10 abs/param.get 2;
#X obj 39 107 inlet~;
#X obj 96 108 inlet~;
#X obj 40 154 outlet~;
#X obj 97 154 outlet~;
#X connect 0 0 8 0;
#X connect 1 0 3 0;
#X connect 2 0 0 1;
#X connect 2 0 4 1;
#X connect 3 0 2 0;
#X connect 4 0 9 0;
#X connect 5 0 1 0;
#X connect 6 0 0 0;
#X connect 7 0 4 0;
#X restore 54 300 pd feedback;
#N canvas 361 528 450 302 fft-data 0;
#X obj 12 18 r \$0-binsize;
#X obj 12 42 * 2;
#X obj 105 40 samplerate~;
#X obj 105 62 / 1000;
#X obj 12 66 outlet;
#X obj 105 86 outlet;
#X obj 105 18 r \$0-sampchange-bang;
#X obj 254 18 r \$0-divadj;
#X obj 254 42 / 64;
#X obj 254 66 outlet;
#X connect 0 0 1 0;
#X connect 1 0 4 0;
#X connect 2 0 3 0;
#X connect 3 0 5 0;
#X connect 6 0 2 0;
#X connect 7 0 8 0;
#X connect 8 0 9 0;
#X restore 71 221 pd fft-data;
#X obj 5 372 outlet~;
#X obj 6 211 -~;
#X obj 23 188 wrap~;
#X obj 6 167 *~;
#N canvas 268 447 450 300 time 0;
#X obj 9 135 line 0 5;
#X msg 9 113 \$1 125;
#X obj 9 159 outlet;
#X obj 11 38 abs/param.get 1;
#X obj 11 62 f;
#X obj 125 38 t b f;
#X obj 244 62 t b f;
#X obj 125 14 abs/param.get 6;
#X obj 244 14 abs/param.get 7;
#X obj 9 89 expr ($f1+($f1*($f2/($f3*100))))/185632;
#X obj 244 39 expr -1*(2*$f1-1);
#X connect 0 0 2 0;
#X connect 1 0 0 0;
#X connect 3 0 4 0;
#X connect 4 0 9 0;
#X connect 5 0 4 0;
#X connect 5 1 9 1;
#X connect 6 0 4 0;
#X connect 6 1 9 2;
#X connect 7 0 5 0;
#X connect 8 0 10 0;
#X connect 9 0 1 0;
#X connect 10 0 6 0;
#X restore 36 155 pd time;
#X obj 6 245 expr~ (($v1*$f2)/$f3)/$f4;
#X obj 6 131 expr~ $v1*($f2/44.1);
#X obj 7 80 delwrite~ real-r 16000;
#X obj 169 80 delwrite~ imag-r 16000;
#X obj 5 276 delread4~ real-r;
#X obj 124 276 delread4~ imag-r;
#X connect 0 0 1 0;
#X connect 1 0 3 0;
#X connect 2 0 1 1;
#X connect 2 0 8 1;
#X connect 3 0 18 0;
#X connect 3 1 19 0;
#X connect 4 0 17 0;
#X connect 5 0 18 0;
#X connect 5 0 19 0;
#X connect 6 0 7 0;
#X connect 7 0 8 0;
#X connect 8 0 11 0;
#X connect 9 0 18 0;
#X connect 9 1 19 0;
#X connect 10 0 16 1;
#X connect 10 0 7 1;
#X connect 10 1 17 1;
#X connect 10 1 16 2;
#X connect 10 2 16 3;
#X connect 12 0 16 0;
#X connect 13 0 12 1;
#X connect 14 0 13 0;
#X connect 14 0 12 0;
#X connect 15 0 14 1;
#X connect 16 0 20 0;
#X connect 16 0 21 0;
#X connect 17 0 14 0;
#X connect 20 0 6 0;
#X connect 20 0 9 0;
#X connect 21 0 6 1;
#X connect 21 0 9 1;
#X restore 142 39 pd fft-analysis-r;
#X connect 0 0 10 0;
#X connect 1 0 11 0;
#X connect 4 0 7 0;
#X connect 5 0 6 0;
#X connect 7 0 5 0;
#X connect 8 0 2 0;
#X connect 9 0 3 0;
#X connect 10 0 8 0;
#X connect 11 0 9 0;
#X restore 4 343 pd spectral;
#N canvas 1000 566 450 293 latency 0;
#X obj 15 207 delread4~ align-l;
#X obj 156 206 delread4~ align-r;
#X obj 193 117 r \$0-binsize;
#X obj 165 43 delwrite~ align-r 300;
#X obj 11 44 delwrite~ align-l 300;
#X obj 12 20 inlet~;
#X obj 165 17 inlet~;
#X obj 16 232 outlet~;
#X obj 156 233 outlet~;
#X obj 285 116 samplerate~;
#X obj 193 172 /~;
#X obj 193 145 sig~;
#X obj 285 141 / 2500;
#X obj 285 92 r \$0-sampchange-bang;
#X connect 0 0 7 0;
#X connect 1 0 8 0;
#X connect 2 0 11 0;
#X connect 5 0 4 0;
#X connect 6 0 3 0;
#X connect 9 0 12 0;
#X connect 10 0 1 0;
#X connect 10 0 0 0;
#X connect 11 0 10 0;
#X connect 12 0 10 1;
#X connect 13 0 9 0;
#X restore 3 368 pd latency;
#X obj 202 124 nbx 4 12 40 4000 1 0 \$0-time-nbx-s \$0-time-nbx-r empty
-3 24 0 10 -204800 -1 -1 40 256;
#X obj 6 231 cnv 15 1 1 empty \$0-canv if_you_like_this 20 12 0 10
-241344 -1 0;
#X obj 6 246 cnv 15 1 1 empty \$0-canv pls_consider_buying 20 12 0
10 -241344 -1 0;
#X obj 6 262 cnv 15 1 1 empty \$0-canv the_full_version_:3 20 12 0
10 -241344 -1 0;
#X connect 3 0 21 0;
#X connect 3 0 20 0;
#X connect 3 1 21 1;
#X connect 3 1 20 1;
#X connect 3 2 19 0;
#X connect 3 3 19 1;
#X connect 18 0 0 0;
#X connect 18 1 0 1;
#X connect 20 0 18 1;
#X connect 20 1 18 3;
#X connect 21 0 18 0;
#X connect 21 1 18 2;
#X coords 0 -1 1 1 420 300 1 0 0;
